<?xml version="1.0" standalone="no"?>
<!DOCTYPE svg PUBLIC "-//W3C//DTD SVG 20010904//EN"
 "http://www.w3.org/TR/2001/REC-SVG-20010904/DTD/svg10.dtd">
<svg version="1.0" xmlns="http://www.w3.org/2000/svg"
 width="250.000000pt" height="250.000000pt" viewBox="0 0 250.000000 250.000000"
 preserveAspectRatio="xMidYMid meet">
<metadata>
Created by potrace 1.11, written by Peter Selinger 2001-2013
</metadata>
<g transform="translate(0.000000,250.000000) scale(0.100000,-0.100000)"
fill="#000000" stroke="none">
<path d="M89 2373 c-1 -36 -1 -2262 0 -2285 1 -14 10 -18 40 -18 l40 0 0 1073
c0 589 1 1090 1 1112 l0 40 23 -25 c12 -14 78 -88 146 -165 68 -77 138 -156
155 -175 17 -19 65 -73 106 -120 41 -47 77 -87 80 -90 3 -3 39 -43 80 -90 41
-47 77 -87 80 -90 3 -3 55 -61 115 -130 61 -69 115 -130 120 -136 22 -24 148
-165 171 -191 l25 -28 41 45 c70 77 120 132 198 220 41 47 89 101 106 120 18
19 109 123 204 230 95 107 191 215 214 240 23 25 75 83 116 130 100 114 139
156 188 210 l41 45 1 -1112 0 -1113 40 0 40 0 -2 1162 -3 1163 -40 3 c-39 3
-42 1 -122 -90 -45 -51 -92 -104 -105 -118 -13 -14 -93 -104 -178 -200 -85
-96 -157 -177 -160 -180 -3 -3 -35 -39 -70 -80 -36 -41 -70 -79 -76 -85 -5 -5
-44 -48 -85 -95 -40 -47 -76 -87 -79 -90 -3 -3 -39 -43 -80 -90 -77 -87 -128
-145 -167 -187 l-21 -24 -79 88 c-43 49 -107 122 -143 162 -36 41 -70 79 -75
85 -6 6 -42 47 -80 91 -39 44 -75 84 -81 90 -6 5 -80 89 -164 185 -304 344
-465 525 -475 532 -5 4 -27 8 -47 8 -35 0 -38 -3 -39 -27z"/>
<path d="M642 1293 c-10 -4 -12 -130 -11 -614 l1 -609 21 0 22 0 0 580 c0 319
3 580 7 580 4 0 13 -8 20 -19 7 -10 35 -42 61 -72 50 -55 59 -66 182 -204 39
-44 93 -105 120 -135 28 -31 81 -91 119 -134 l70 -78 45 49 c25 28 77 85 115
129 38 43 99 113 137 154 37 41 76 84 86 96 115 133 188 214 193 214 3 0 5
-261 5 -580 l0 -580 22 0 23 0 0 610 c0 481 -3 610 -12 611 -43 4 -24 21 -232
-216 -82 -93 -158 -179 -170 -191 -12 -12 -46 -50 -76 -85 -84 -97 -138 -154
-142 -149 -7 9 -143 165 -148 170 -3 3 -41 46 -85 95 -44 50 -91 104 -106 120
-14 17 -68 77 -119 135 -117 132 -119 135 -148 123z"/>
</g>
</svg>
